<svg width="1069" height="784" viewBox="0 0 1069 784" fill="none" xmlns="http://www.w3.org/2000/svg">
<path d="M187.226 0L131.387 91.2046C146.468 100.993 157.13 116.277 161.104 133.804C165.079 151.33 162.051 169.714 152.666 185.043C143.281 200.372 128.28 211.436 110.855 215.879C93.4302 220.322 74.9585 217.793 59.3712 208.83L0 305.805L572.774 656L760 350.195L187.226 0Z" fill="#F2F2F2"/>
<path d="M103 194C127.853 194 148 173.853 148 149C148 124.147 127.853 104 103 104C78.1473 104 58 124.147 58 149C58 173.853 78.1473 194 103 194Z" fill="#F2F2F2"/>
<path d="M519.501 750C607.589 750 679 745.523 679 739.999C679 734.477 607.589 730 519.501 730C431.411 730 360 734.477 360 739.999C360 745.523 431.411 750 519.501 750Z" fill="#F2F2F2"/>
<path d="M250.501 784C291.646 784 325 781.986 325 779.501C325 777.016 291.646 775 250.501 775C209.355 775 176 777.016 176 779.501C176 781.986 209.355 784 250.501 784Z" fill="#F2F2F2"/>
<path d="M835.501 726C923.589 726 995 721.523 995 716.001C995 710.477 923.589 706 835.501 706C747.411 706 676 710.477 676 716.001C676 721.523 747.411 726 835.501 726Z" fill="#F2F2F2"/>
<path d="M7 699H1069" stroke="#2F2E41" stroke-width="2" stroke-miterlimit="10"/>
<path d="M956 183H192V699H956V183Z" fill="#3F3D56"/>
<path d="M192 222H956" stroke="#2F2E41" stroke-width="2" stroke-miterlimit="10"/>
<path d="M215.5 211C220.746 211 225 206.746 225 201.499C225 196.254 220.746 192 215.5 192C210.254 192 206 196.254 206 201.499C206 206.746 210.254 211 215.5 211Z" fill="#EF5423"/>
<path d="M243.499 212C248.748 212 253 207.97 253 203.001C253 198.03 248.748 194 243.499 194C238.252 194 234 198.03 234 203.001C234 207.97 238.252 212 243.499 212Z" fill="#EF5423"/>
<path d="M271.5 212C276.746 212 281 207.971 281 203C281 198.029 276.746 194 271.5 194C266.254 194 262 198.029 262 203C262 207.971 266.254 212 271.5 212Z" fill="#EF5423"/>
<path opacity="0.3" d="M883 257H239V382H883V257Z" fill="#EF5423"/>
<path opacity="0.3" d="M239 382L883 257" stroke="#EF5423" stroke-width="2" stroke-miterlimit="10"/>
<path opacity="0.3" d="M883 382L239 257" stroke="#EF5423" stroke-width="2" stroke-miterlimit="10"/>
<path opacity="0.3" d="M393 461H239V663H393V461Z" fill="#EF5423"/>
<path opacity="0.3" d="M883 461H730V663H883V461Z" fill="#EF5423"/>
<path opacity="0.3" d="M639 461H484V663H639V461Z" fill="#EF5423"/>
<path opacity="0.3" d="M239 461L393 663" stroke="#EF5423" stroke-width="2" stroke-miterlimit="10"/>
<path opacity="0.3" d="M393 461L239 663" stroke="#EF5423" stroke-width="2" stroke-miterlimit="10"/>
<path opacity="0.3" d="M485 461L639 663" stroke="#EF5423" stroke-width="2" stroke-miterlimit="10"/>
<path opacity="0.3" d="M639 461L485 663" stroke="#EF5423" stroke-width="2" stroke-miterlimit="10"/>
<path opacity="0.3" d="M730 461L883 663" stroke="#EF5423" stroke-width="2" stroke-miterlimit="10"/>
<path opacity="0.3" d="M883 461L730 663" stroke="#EF5423" stroke-width="2" stroke-miterlimit="10"/>
<path d="M969 257H325V382H969V257Z" fill="#334762"/>
<path d="M913 510H760V711H913V510Z" fill="#EF5423"/>
<path d="M890 537H781V549H890V537Z" fill="#3F3D56"/>
<path d="M890 563H781V576H890V563Z" fill="#3F3D56"/>
<path d="M890 590H781V602H890V590Z" fill="#3F3D56"/>
<path d="M890 617H781V631H890V617Z" fill="#3F3D56"/>
<path d="M890 644H781V658H890V644Z" fill="#3F3D56"/>
<path d="M890 672H781V684H890V672Z" fill="#3F3D56"/>
<path d="M430 488H277V690H430V488Z" fill="#EF5423"/>
<path d="M409 555H300V569H409V555Z" fill="#3F3D56"/>
<path d="M409 584H300V596H409V584Z" fill="#3F3D56"/>
<path d="M409 610H300V623H409V610Z" fill="#3F3D56"/>
<path d="M85.9999 379C99.2548 379 110 367.807 110 354C110 340.193 99.2548 329 85.9999 329C72.7451 329 62 340.193 62 354C62 367.807 72.7451 379 85.9999 379Z" fill="#2F2E41"/>
<path d="M74.0963 370C74.0963 370 74.4394 385.984 73.0668 386.373C71.6941 386.762 91.941 393 91.941 393L94 371.169L74.0963 370Z" fill="#A0616A"/>
<path d="M245.474 499.93C245.474 499.93 261.094 499.93 261.45 498.136C261.804 496.343 265 512.848 265 512.848L258.609 515C258.609 515 246.538 509.619 245.474 509.619C244.408 509.619 245.474 499.93 245.474 499.93Z" fill="#A0616A"/>
<path d="M263.387 505.96C263.387 505.96 260.548 495.831 257 495.457C257 495.457 269.066 487.204 269.42 484.579C269.776 481.953 274.034 475.201 275.809 477.452C277.582 479.704 277.582 515.337 274.39 519.088C271.195 522.838 257 513.816 257 513.816C257 513.816 265.872 509.71 263.387 505.96Z" fill="#2F2E41"/>
<path d="M62.0267 648L59 663.795L73 666V648H62.0267Z" fill="#A0616A"/>
<path d="M62.1491 661.06C62.1491 661.06 59.9046 654.006 58.4082 655.119C56.9119 656.233 54.6674 663.287 55.0414 665.145C55.4154 667.002 58.0342 681.483 56.9119 684.082C55.7896 686.681 62.5233 700.048 71.1276 698.934C79.7318 697.821 78.9836 690.394 78.9836 690.394L75.9907 678.884L74.8685 660.688C74.8685 660.688 65.1419 659.204 62.1491 661.06Z" fill="#2F2E41"/>
<path d="M77 339C82.5229 339 87 334.523 87 329C87 323.477 82.5229 319 77 319C71.4771 319 67 323.477 67 329C67 334.523 71.4771 339 77 339Z" fill="#2F2E41"/>
<path d="M64.0755 323C64.0757 320.528 64.9876 318.145 66.6357 316.308C68.2838 314.47 70.551 313.312 73 313.055C72.6553 313.018 72.309 313 71.9623 313C69.3202 313 66.7861 314.054 64.9179 315.93C63.0496 317.804 62 320.349 62 323C62 325.653 63.0496 328.196 64.9179 330.072C66.7861 331.946 69.3202 333 71.9623 333C72.309 333 72.6553 332.982 73 332.945C70.551 332.688 68.2838 331.53 66.6357 329.692C64.9876 327.855 64.0757 325.472 64.0755 323Z" fill="#2F2E41"/>
<path d="M86 381C94.8364 381 102 374.061 102 365.5C102 356.939 94.8364 350 86 350C77.1634 350 70 356.939 70 365.5C70 374.061 77.1634 381 86 381Z" fill="#A0616A"/>
<path d="M55 472.916C55 472.916 55.7397 491.361 58.6981 500.951C61.6566 510.541 72.3227 578.846 70.1038 584.01C67.885 589.174 56.4792 646.289 59.068 649.609C61.6566 652.929 73.8604 651.823 73.8604 651.823L90.4434 582.534C90.4434 582.534 87.1736 506.115 114.54 504.271C141.906 502.427 186.652 501.319 186.652 501.319C186.652 501.319 215.498 509.803 228.442 509.435C241.385 509.065 248.782 512.755 248.782 512.755L251 497.631L193.679 485.088C193.679 485.088 141.166 467.014 112.321 471.81C83.4755 476.604 55 472.916 55 472.916Z" fill="#2F2E41"/>
<path d="M75.5347 382.135C75.5347 382.135 71.1387 379.581 70.0397 382.135C68.9407 384.69 61.2476 386.88 58.3169 384.69C55.3861 382.501 48.0595 385.42 48.0595 385.42L40 409.142C40 409.142 44.0298 429.581 47.6931 440.894C51.3565 452.206 52.8218 475.564 51.3565 477.755C49.8913 479.943 80.6633 488.703 95.6831 483.228C110.703 477.755 114 471.549 114 471.549C114 471.549 97.5149 448.193 103.01 437.245C108.505 426.296 104.109 413.887 104.109 413.887L106.307 401.478L93.8514 394.544C93.8514 394.544 93.1188 387.975 90.1881 387.975C87.2573 387.975 75.5347 382.135 75.5347 382.135Z" fill="#D0CDE1"/>
<path d="M101.783 401H107.762C109.42 402.412 110.657 404.185 111.354 406.155C112.051 408.123 112.187 410.22 111.748 412.248C110.153 419.142 102.963 442 102.963 442L97 427.852L101.783 401Z" fill="#D0CDE1"/>
<path d="M117.689 460C117.689 460 129.492 472.317 120.815 478.778C112.138 485.241 110 463.956 110 463.956L117.689 460Z" fill="#A0616A"/>
<path d="M101.561 436L104.179 446.299L108.667 454.392C108.667 454.392 124 464.322 124 468C124 468 117.268 459.542 108.667 468L101 449.793L101.561 436Z" fill="#D0CDE1"/>
<path d="M89.5 359C98.6127 359 106 354.523 106 349C106 343.477 98.6127 339 89.5 339C80.3873 339 73 343.477 73 349C73 354.523 80.3873 359 89.5 359Z" fill="#2F2E41"/>
<path d="M55 349.607C55 349.607 67.2329 342.926 72.2024 347.75C77.172 352.576 57.2937 360 57.2937 360L55 349.607Z" fill="#A0616A"/>
<path d="M51.8586 386.377L49.2304 384.524C49.2304 384.524 46.2266 380.074 43.5984 381.558C40.97 383.042 25.576 375.994 25.576 375.994C25.576 375.994 31.208 378.59 31.208 374.14C31.208 369.69 31.9588 370.432 35.7136 370.432C39.4682 370.432 39.4682 372.286 40.97 369.69C42.4718 367.095 41.721 365.611 44.3492 367.095C46.9774 368.578 49.9812 367.465 50.7322 366.353C51.483 365.241 65 363.387 65 363.387C65 363.387 59.7434 348.182 58.617 347.07C57.4906 345.956 28.5798 358.565 28.5798 358.565C28.5798 358.565 -7.84053 368.578 1.54615 380.074C10.9328 391.569 44.7248 409 44.7248 409L51.8586 386.377Z" fill="#D0CDE1"/>
<path d="M605 539H450V741H605V539Z" fill="#EF5423"/>
<path d="M562 570H493V640H562V570Z" fill="#3F3D56"/>
<path d="M588 654H467V663H588V654Z" fill="#3F3D56"/>
<path d="M588 678H467V686H588V678Z" fill="#3F3D56"/>
<path d="M588 701H467V709H588V701Z" fill="#3F3D56"/>
<path d="M274 758.138C274 773.602 265.046 779 254.001 779C253.744 779 253.489 778.998 253.234 778.992C252.721 778.981 252.215 778.957 251.714 778.921C241.744 778.197 234 772.519 234 758.138C234 743.253 252.525 724.473 253.916 723.083L253.92 723.081C253.973 723.026 253.999 723 253.999 723C253.999 723 274 742.672 274 758.138Z" fill="#EF5423"/>
<path d="M253.672 776.643L260.65 766.146L253.654 777.795L253.635 779C253.146 778.989 252.663 778.964 252.185 778.928L252.938 763.455L252.931 763.334L252.945 763.312L253.015 761.85L246 750.173L253.038 760.755L253.053 761.064L253.623 749.373L247.617 737.308L253.694 747.322L254.286 723.083L254.29 723V723.079L254.19 742.194L260.17 734.617L254.165 743.84L254.008 754.309L259.59 744.263L253.985 755.848L253.896 761.667L262 747.686L253.866 763.698L253.672 776.643Z" fill="#3F3D56"/>
<path d="M646.337 353.634C635.839 363.73 627.263 366.105 616.134 365.996C585.395 365.693 572.827 340.466 573.002 323.467C573.197 304.372 587.151 280.708 616.929 281.003C631.009 281.141 647.898 287.529 653.57 302.343C654.36 304.449 653.135 308.849 646.279 308.781C632.717 308.648 630.46 298.788 616.528 298.65C604.07 298.526 591.285 308.89 591.142 322.851C590.999 336.812 602.384 348.136 616.462 348.276C629.509 348.405 636.762 338.493 638.638 335.256C635.188 333.776 631.803 333.163 629.002 333.135C622.074 333.067 620.428 335.366 618.438 335.346C616.447 335.326 615.44 332.929 615.462 330.758C615.486 328.3 618.186 316.751 641.478 316.981C648.555 317.051 652.303 318.029 654.639 320.439C661.789 327.671 656.834 343.537 646.337 353.634Z" fill="#EF5423"/>
<path d="M575.87 269.002C583.619 269.078 587.823 272.63 589.901 276.735C591.98 280.84 592.103 282.99 591.957 283.061C591.81 283.131 589.916 282.325 586.866 280.288C583.817 278.253 575.745 274.088 572.161 274.197C568.722 274.306 570.909 275.116 571.785 275.123C573.175 275.138 581.541 279.232 583.573 280.685C585.677 282.212 588.947 284.321 588.861 285.467C588.776 286.612 585.971 289.165 582.903 288.992C579.833 288.817 576.411 287.494 570.829 282.853C565.247 278.141 560.675 274.872 559.947 274.578C559.218 274.283 559 274.281 559 274.139C559.082 273.351 566 268.905 575.87 269.002Z" fill="#4AAC48"/>
<path d="M597.42 265.122C602.05 261.549 609.577 259.958 613.951 260.001C616.869 260.03 615.991 260.384 615.399 261.175C614.807 261.965 609.446 272.992 606.127 276.652C602.809 280.312 600.77 280 599.677 279.989C598.584 279.978 596.91 279.6 596.917 278.948C597.003 277.719 597.897 275.627 601.297 271.244C605.509 265.71 607.555 265.296 607.413 264.861C607.272 264.424 604.936 264.691 599.478 270.719C596.381 274.164 597.402 274.175 593.859 278.412C593.564 278.771 592.373 274.051 593.428 270.587C594.484 267.12 597.42 265.122 597.42 265.122Z" fill="#4AAC48"/>
</svg>
