<svg width="575" height="422" viewBox="0 0 575 422" fill="none" xmlns="http://www.w3.org/2000/svg">
<path d="M100.794 0L70.7494 49.0817C78.8638 54.3495 84.6008 62.5746 86.7392 72.0063C88.8776 81.438 87.2486 91.3315 82.1989 99.5808C77.1492 107.83 69.0777 113.784 59.7022 116.175C50.3268 118.566 40.388 117.205 32.0012 112.382L0.0562134 164.569L308.24 353.026L408.978 188.457L100.794 0Z" fill="#F2F2F2"/>
<path d="M55.0145 104.39C68.3789 104.39 79.213 93.5619 79.213 80.2043C79.213 66.8466 68.3789 56.0181 55.0145 56.0181C41.6501 56.0181 30.816 66.8466 30.816 80.2043C30.816 93.5619 41.6501 104.39 55.0145 104.39Z" fill="#F2F2F2"/>
<path d="M279.554 404.186C326.795 404.186 365.092 401.668 365.092 398.561C365.092 395.455 326.795 392.937 279.554 392.937C232.312 392.937 194.015 395.455 194.015 398.561C194.015 401.668 232.312 404.186 279.554 404.186Z" fill="#F2F2F2"/>
<path d="M134.926 422C156.993 422 174.881 420.824 174.881 419.373C174.881 417.922 156.993 416.745 134.926 416.745C112.859 416.745 94.9701 417.922 94.9701 419.373C94.9701 420.824 112.859 422 134.926 422Z" fill="#F2F2F2"/>
<path d="M449.506 391.249C496.747 391.249 535.044 388.731 535.044 385.625C535.044 382.518 496.747 380 449.506 380C402.264 380 363.967 382.518 363.967 385.625C363.967 388.731 402.264 391.249 449.506 391.249Z" fill="#F2F2F2"/>
<path d="M3.80383 376.625H575" stroke="#2F2E41" stroke-width="2" stroke-miterlimit="10"/>
<path d="M513.941 99.047H103.13V376.344H513.941V99.047Z" fill="#3F3D56"/>
<path d="M103.13 119.329H513.941" stroke="#2F2E41" stroke-width="2" stroke-miterlimit="10"/>
<path d="M115.792 114.234C118.589 114.234 120.857 111.967 120.857 109.171C120.857 106.376 118.589 104.109 115.792 104.109C112.995 104.109 110.727 106.376 110.727 109.171C110.727 111.967 112.995 114.234 115.792 114.234Z" fill="#EF5423"/>
<path d="M130.986 114.515C133.784 114.515 136.051 112.248 136.051 109.453C136.051 106.657 133.784 104.39 130.986 104.39C128.189 104.39 125.922 106.657 125.922 109.453C125.922 112.248 128.189 114.515 130.986 114.515Z" fill="#EF5423"/>
<path d="M146.181 114.796C148.978 114.796 151.246 112.53 151.246 109.734C151.246 106.938 148.978 104.672 146.181 104.672C143.384 104.672 141.116 106.938 141.116 109.734C141.116 112.53 143.384 114.796 146.181 114.796Z" fill="#EF5423"/>
<path opacity="0.3" d="M475.392 138.139H128.735V205.635H475.392V138.139Z" fill="#EF5423"/>
<path opacity="0.3" d="M128.735 205.635L475.392 138.139" stroke="#EF5423" stroke-width="2" stroke-miterlimit="10"/>
<path opacity="0.3" d="M475.392 205.635L128.735 138.139" stroke="#EF5423" stroke-width="2" stroke-miterlimit="10"/>
<path opacity="0.3" d="M211.46 248.382H128.735V356.939H211.46V248.382Z" fill="#EF5423"/>
<path opacity="0.3" d="M475.392 248.382H392.667V356.939H475.392V248.382Z" fill="#EF5423"/>
<path opacity="0.3" d="M343.426 248.382H260.701V356.939H343.426V248.382Z" fill="#EF5423"/>
<path opacity="0.3" d="M128.735 248.382L211.46 356.939" stroke="#EF5423" stroke-width="2" stroke-miterlimit="10"/>
<path opacity="0.3" d="M211.46 248.382L128.735 356.939" stroke="#EF5423" stroke-width="2" stroke-miterlimit="10"/>
<path opacity="0.3" d="M260.983 248.382L343.708 356.939" stroke="#EF5423" stroke-width="2" stroke-miterlimit="10"/>
<path opacity="0.3" d="M343.708 248.382L260.983 356.939" stroke="#EF5423" stroke-width="2" stroke-miterlimit="10"/>
<path opacity="0.3" d="M392.667 248.382L475.392 356.939" stroke="#EF5423" stroke-width="2" stroke-miterlimit="10"/>
<path opacity="0.3" d="M475.392 248.382L392.667 356.939" stroke="#EF5423" stroke-width="2" stroke-miterlimit="10"/>
<path d="M521.538 138.139H174.881V205.635H521.538V138.139Z" fill="#334762"/>
<path d="M491.15 274.256H408.425V382.812H491.15V274.256Z" fill="#EF5423"/>
<path d="M479.05 288.599H420.524V295.348H479.05V288.599Z" fill="#3F3D56"/>
<path d="M479.05 303.223H420.524V309.973H479.05V303.223Z" fill="#3F3D56"/>
<path d="M479.05 317.847H420.524V324.597H479.05V317.847Z" fill="#3F3D56"/>
<path d="M479.05 332.471H420.524V339.221H479.05V332.471Z" fill="#3F3D56"/>
<path d="M479.05 347.095H420.524V353.845H479.05V347.095Z" fill="#3F3D56"/>
<path d="M479.05 361.72H420.524V368.469H479.05V361.72Z" fill="#3F3D56"/>
<path d="M231.72 263.006H148.995V371.563H231.72V263.006Z" fill="#EF5423"/>
<path d="M219.62 299.286H161.094V306.035H219.62V299.286Z" fill="#3F3D56"/>
<path d="M219.62 313.91H161.094V320.659H219.62V313.91Z" fill="#3F3D56"/>
<path d="M219.62 328.534H161.094V335.284H219.62V328.534Z" fill="#3F3D56"/>
<path d="M46.2759 203.991C53.5588 203.991 59.4628 198.09 59.4628 190.811C59.4628 183.532 53.5588 177.631 46.2759 177.631C38.993 177.631 33.0891 183.532 33.0891 190.811C33.0891 198.09 38.993 203.991 46.2759 203.991Z" fill="#2F2E41"/>
<path d="M39.333 199.586C39.333 199.586 39.5315 207.722 38.7374 207.92C37.9433 208.118 49.6567 211.293 49.6567 211.293L50.8479 200.181L39.333 199.586Z" fill="#A0616A"/>
<path d="M131.85 269.037C131.85 269.037 140.585 269.037 140.784 268.045C140.982 267.053 142.769 276.181 142.769 276.181L139.195 277.371C139.195 277.371 132.445 274.395 131.85 274.395C131.254 274.395 131.85 269.037 131.85 269.037Z" fill="#A0616A"/>
<path d="M141.379 272.609C141.379 272.609 139.791 267.251 137.806 267.053C137.806 267.053 144.556 262.687 144.754 261.298C144.953 259.909 147.335 256.337 148.328 257.528C149.32 258.719 149.32 277.57 147.534 279.554C145.747 281.538 137.806 276.765 137.806 276.765C137.806 276.765 142.769 274.593 141.379 272.609Z" fill="#2F2E41"/>
<path d="M33.5756 348.608L31.9875 357.141L39.3332 358.332V348.608H33.5756Z" fill="#A0616A"/>
<path d="M33.5755 356.149C33.5755 356.149 32.3843 352.379 31.5902 352.974C30.7961 353.569 29.6049 357.339 29.8034 358.332C30.0019 359.324 31.3917 367.063 30.7961 368.452C30.2005 369.841 33.7741 376.984 38.3404 376.389C42.9067 375.794 42.5096 371.825 42.5096 371.825L40.9213 365.674L40.3257 355.95C40.3257 355.95 35.1638 355.157 33.5755 356.149Z" fill="#2F2E41"/>
<path d="M41.663 182.393C44.6766 182.393 47.1196 179.951 47.1196 176.939C47.1196 173.927 44.6766 171.485 41.663 171.485C38.6494 171.485 36.2064 173.927 36.2064 176.939C36.2064 179.951 38.6494 182.393 41.663 182.393Z" fill="#2F2E41"/>
<path d="M34.3875 173.985C34.3876 172.637 34.8871 171.337 35.7898 170.335C36.6925 169.333 37.9343 168.701 39.2757 168.561C39.0869 168.541 38.8972 168.531 38.7073 168.531C37.2602 168.531 35.8722 169.106 34.8489 170.129C33.8256 171.151 33.2507 172.539 33.2507 173.985C33.2507 175.432 33.8256 176.819 34.8489 177.842C35.8722 178.864 37.2602 179.439 38.7073 179.439C38.8972 179.439 39.0869 179.429 39.2757 179.409C37.9343 179.269 36.6925 178.637 35.7898 177.635C34.8871 176.633 34.3876 175.333 34.3875 173.985Z" fill="#2F2E41"/>
<path d="M46.2817 205.142C50.8868 205.142 54.6201 201.411 54.6201 196.808C54.6201 192.205 50.8868 188.474 46.2817 188.474C41.6765 188.474 37.9433 192.205 37.9433 196.808C37.9433 201.411 41.6765 205.142 46.2817 205.142Z" fill="#A0616A"/>
<path d="M29.8034 254.75C29.8034 254.75 30.2005 264.672 31.7887 269.831C33.377 274.99 39.1031 311.733 37.9119 314.511C36.7207 317.289 30.5975 348.013 31.9873 349.799C33.377 351.585 39.9286 350.99 39.9286 350.99L48.8312 313.717C48.8312 313.717 47.0758 272.609 61.7673 271.617C76.4587 270.625 100.481 270.029 100.481 270.029C100.481 270.029 115.967 274.593 122.916 274.395C129.864 274.196 133.835 276.181 133.835 276.181L135.026 268.045L104.253 261.298C104.253 261.298 76.0617 251.575 60.5761 254.155C45.0905 256.734 29.8034 254.75 29.8034 254.75Z" fill="#2F2E41"/>
<path d="M40.9213 205.34C40.9213 205.34 38.5389 203.951 37.9433 205.34C37.3477 206.729 33.1785 207.92 31.5902 206.729C30.0019 205.539 26.0313 207.126 26.0313 207.126L21.6635 220.024C21.6635 220.024 23.8474 231.137 25.8327 237.288C27.8181 243.439 28.6122 256.139 27.8181 257.33C27.024 258.52 43.7007 263.283 51.8406 260.306C59.9805 257.33 61.7673 253.956 61.7673 253.956C61.7673 253.956 52.8333 241.257 55.8113 235.304C58.7893 229.351 56.4069 222.604 56.4069 222.604L57.5981 215.857L50.8479 212.087C50.8479 212.087 50.4509 208.515 48.8626 208.515C47.2743 208.515 40.9213 205.34 40.9213 205.34Z" fill="#D0CDE1"/>
<path d="M54.6201 216.056H57.5981C58.4242 216.828 59.0399 217.798 59.3872 218.875C59.7345 219.951 59.802 221.098 59.5834 222.207C58.7893 225.977 55.2078 238.477 55.2078 238.477L52.2377 230.74L54.6201 216.056Z" fill="#D0CDE1"/>
<path d="M63.1717 247.923C63.1717 247.923 69.113 254.353 64.7453 257.726C60.3775 261.1 59.3013 249.988 59.3013 249.988L63.1717 247.923Z" fill="#A0616A"/>
<path d="M54.6201 234.51L56.0098 240.066L58.3922 244.432C58.3922 244.432 66.532 249.789 66.532 251.773C66.532 251.773 62.9584 247.21 58.3922 251.773L54.3223 241.951L54.6201 234.51Z" fill="#D0CDE1"/>
<path d="M47.81 193.471C52.8327 193.471 56.9044 191.029 56.9044 188.017C56.9044 185.005 52.8327 182.563 47.81 182.563C42.7873 182.563 38.7156 185.005 38.7156 188.017C38.7156 191.029 42.7873 193.471 47.81 193.471Z" fill="#2F2E41"/>
<path d="M29.8034 188.474C29.8034 188.474 36.1565 184.902 38.7374 187.481C41.3183 190.061 30.9946 194.03 30.9946 194.03L29.8034 188.474Z" fill="#A0616A"/>
<path d="M27.421 208.118L26.0313 207.126C26.0313 207.126 24.443 204.745 23.0533 205.539C21.6635 206.333 13.5237 202.562 13.5237 202.562C13.5237 202.562 16.5017 203.951 16.5017 201.57C16.5017 199.189 16.8987 199.586 18.8841 199.586C20.8694 199.586 20.8694 200.578 21.6635 199.189C22.4576 197.8 22.0606 197.006 23.4503 197.8C24.84 198.594 26.4283 197.998 26.8254 197.403C27.2224 196.808 34.3697 195.816 34.3697 195.816C34.3697 195.816 31.5902 187.68 30.9946 187.085C30.399 186.489 15.112 193.236 15.112 193.236C15.112 193.236 -4.14576 198.594 0.817577 204.745C5.78091 210.896 23.6489 220.223 23.6489 220.223L27.421 208.118Z" fill="#D0CDE1"/>
<path d="M325.137 290.005H242.412V398.561H325.137V290.005Z" fill="#EF5423"/>
<path d="M302.345 307.16H265.203V344.283H302.345V307.16Z" fill="#3F3D56"/>
<path d="M316.414 352.158H251.135V356.657H316.414V352.158Z" fill="#3F3D56"/>
<path d="M316.414 364.532H251.135V369.032H316.414V364.532Z" fill="#3F3D56"/>
<path d="M316.414 376.906H251.135V381.406H316.414V376.906Z" fill="#3F3D56"/>
<path d="M147.798 407.805C147.798 416.006 142.92 418.869 136.903 418.869C136.763 418.869 136.624 418.868 136.485 418.865C136.206 418.859 135.93 418.846 135.657 418.827C130.226 418.443 126.007 415.432 126.007 407.805C126.007 399.911 136.099 389.951 136.857 389.214L136.859 389.213C136.888 389.184 136.902 389.17 136.902 389.17C136.902 389.17 147.798 399.603 147.798 407.805Z" fill="#EF5423"/>
<path d="M136.506 417.615L140.49 412.049L136.496 418.226L136.485 418.865C136.206 418.859 135.93 418.846 135.657 418.827L136.087 410.622L136.083 410.558L136.091 410.546L136.131 409.771L132.126 403.579L136.144 409.19L136.153 409.354L136.478 403.155L133.049 396.757L136.519 402.067L136.857 389.214L136.859 389.17V389.212L136.802 399.348L140.216 395.33L136.788 400.221L136.698 405.772L139.885 400.445L136.685 406.588L136.634 409.674L141.261 402.26L136.617 410.751L136.506 417.615Z" fill="#3F3D56"/>
<path d="M347.314 190.636C341.718 196.12 337.147 197.41 331.215 197.351C314.831 197.186 308.132 183.484 308.225 174.251C308.329 163.879 315.767 151.026 331.639 151.186C339.144 151.261 348.146 154.731 351.169 162.777C351.59 163.921 350.937 166.311 347.283 166.274C340.054 166.202 338.851 160.846 331.425 160.771C324.785 160.704 317.97 166.333 317.894 173.916C317.818 181.499 323.886 187.65 331.39 187.726C338.344 187.796 342.21 182.412 343.21 180.654C341.371 179.85 339.567 179.517 338.074 179.502C334.381 179.465 333.504 180.714 332.443 180.703C331.382 180.692 330.845 179.39 330.857 178.211C330.87 176.876 332.309 170.603 344.724 170.728C348.496 170.766 350.494 171.297 351.739 172.606C355.55 176.534 352.909 185.152 347.314 190.636Z" fill="#EF5423"/>
<path d="M309.7 144.757C313.865 144.799 316.124 146.747 317.241 148.998C318.358 151.249 318.424 152.428 318.346 152.467C318.267 152.505 317.249 152.063 315.61 150.946C313.971 149.83 309.633 147.546 307.707 147.606C305.859 147.666 307.034 148.11 307.505 148.114C308.252 148.122 312.748 150.367 313.84 151.164C314.971 152.001 316.728 153.158 316.682 153.786C316.636 154.414 315.129 155.814 313.48 155.719C311.83 155.623 309.991 154.898 306.991 152.353C303.991 149.769 301.534 147.976 301.143 147.815C300.751 147.653 300.634 147.652 300.634 147.574C300.678 147.142 304.396 144.704 309.7 144.757Z" fill="#4AAC48"/>
<path d="M321.506 142.911C324.001 140.972 328.057 140.109 330.414 140.132C331.986 140.148 331.513 140.34 331.194 140.769C330.875 141.198 327.986 147.181 326.198 149.167C324.41 151.153 323.311 150.984 322.722 150.978C322.133 150.972 321.231 150.767 321.235 150.413C321.281 149.746 321.763 148.611 323.595 146.233C325.865 143.23 326.967 143.005 326.891 142.769C326.815 142.532 325.556 142.677 322.615 145.948C320.946 147.817 321.496 147.823 319.587 150.122C319.428 150.317 318.786 147.756 319.355 145.876C319.924 143.995 321.506 142.911 321.506 142.911Z" fill="#4AAC48"/>
</svg>
